<?xml version="1.0" encoding="utf-8" standalone="no"?>
<!DOCTYPE svg PUBLIC "-//W3C//DTD SVG 1.1//EN"
  "http://www.w3.org/Graphics/SVG/1.1/DTD/svg11.dtd">
<svg xmlns:xlink="http://www.w3.org/1999/xlink" width="504pt" height="504pt" viewBox="0 0 504 504" xmlns="http://www.w3.org/2000/svg" version="1.1">
 <metadata>
  <rdf:RDF xmlns:dc="http://purl.org/dc/elements/1.1/" xmlns:cc="http://creativecommons.org/ns#" xmlns:rdf="http://www.w3.org/1999/02/22-rdf-syntax-ns#">
   <cc:Work>
    <dc:type rdf:resource="http://purl.org/dc/dcmitype/StillImage"/>
    <dc:date>2026-09-27T17:59:04.111902</dc:date>
    <dc:format>image/svg+xml</dc:format>
    <dc:creator>
     <cc:Agent>
      <dc:title>Matplotlib v3.11.1, https://matplotlib.org/</dc:title>
     </cc:Agent>
    </dc:creator>
   </cc:Work>
  </rdf:RDF>
 </metadata>
 <defs>
  <style type="text/css">*{stroke-linejoin: round; stroke-linecap: butt}</style>
 </defs>
 <g id="figure_1">
  <g id="patch_1">
   <path d="M 0 504 
L 504 504 
L 504 0 
L 0 0 
z
" style="fill: #ffffff"/>
  </g>
  <g id="axes_1">
   <g id="patch_2">
    <path d="M 59.469531 459.117656 
L 482.150469 459.117656 
L 482.150469 36.436719 
L 59.469531 36.436719 
z
" style="fill: #ffffff"/>
   </g>
   <g id="line2d_1">
    <path d="M 59.469531 313.821084 
L 482.150469 313.821084 
" clip-path="url(#pf8d742e1d4)" style="fill: none; stroke: #666666; stroke-width: 1.2; stroke-linecap: square"/>
   </g>
   <g id="line2d_2">
    <path d="M 270.81 459.117656 
L 270.81 36.436719 
" clip-path="url(#pf8d742e1d4)" style="fill: none; stroke: #666666; stroke-width: 1.2; stroke-linecap: square"/>
   </g>
   <g id="matplotlib.axis_1">
    <g id="xtick_1">
     <g id="line2d_3">
      <path d="M 72.678311 459.117656 
L 72.678311 36.436719 
" clip-path="url(#pf8d742e1d4)" style="fill: none; stroke-dasharray: 2.96,1.28; stroke-dashoffset: 0; stroke: #cccccc; stroke-opacity: 0.5; stroke-width: 0.8"/>
     </g>
     <g id="line2d_4">
      <defs>
       <path id="m4250375419" d="M 0 0 
L 0 3.5 
" style="stroke: #000000; stroke-width: 0.8"/>
      </defs>
      <g>
       <use xlink:href="#m4250375419" x="72.678311" y="459.117656" style="stroke: #000000; stroke-width: 0.8"/>
      </g>
     </g>
     <g id="text_1">
      <!-- −3 -->
      <g transform="translate(65.307217 473.715312) scale(0.1 -0.1)">
       <defs>
        <path id="DejaVuSans-c9c" d="M 678 2272 
L 4684 2272 
L 4684 1741 
L 678 1741 
L 678 2272 
z
" transform="scale(0.015625)"/>
        <path id="DejaVuSans-16" d="M 2597 2516 
Q 3050 2419 3304 2112 
Q 3559 1806 3559 1356 
Q 3559 666 3084 287 
Q 2609 -91 1734 -91 
Q 1441 -91 1130 -33 
Q 819 25 488 141 
L 488 750 
Q 750 597 1062 519 
Q 1375 441 1716 441 
Q 2309 441 2620 675 
Q 2931 909 2931 1356 
Q 2931 1769 2642 2001 
Q 2353 2234 1838 2234 
L 1294 2234 
L 1294 2753 
L 1863 2753 
Q 2328 2753 2575 2939 
Q 2822 3125 2822 3475 
Q 2822 3834 2567 4026 
Q 2313 4219 1838 4219 
Q 1578 4219 1281 4162 
Q 984 4106 628 3988 
L 628 4550 
Q 988 4650 1302 4700 
Q 1616 4750 1894 4750 
Q 2613 4750 3031 4423 
Q 3450 4097 3450 3541 
Q 3450 3153 3228 2886 
Q 3006 2619 2597 2516 
z
" transform="scale(0.015625)"/>
       </defs>
       <use xlink:href="#DejaVuSans-c9c"/>
       <use xlink:href="#DejaVuSans-16" transform="translate(83.796875 0)"/>
      </g>
     </g>
    </g>
    <g id="xtick_2">
     <g id="line2d_5">
      <path d="M 138.722207 459.117656 
L 138.722207 36.436719 
" clip-path="url(#pf8d742e1d4)" style="fill: none; stroke-dasharray: 2.96,1.28; stroke-dashoffset: 0; stroke: #cccccc; stroke-opacity: 0.5; stroke-width: 0.8"/>
     </g>
     <g id="line2d_6">
      <g>
       <use xlink:href="#m4250375419" x="138.722207" y="459.117656" style="stroke: #000000; stroke-width: 0.8"/>
      </g>
     </g>
     <g id="text_2">
      <!-- −2 -->
      <g transform="translate(131.351113 473.715312) scale(0.1 -0.1)">
       <defs>
        <path id="DejaVuSans-15" d="M 1228 531 
L 3431 531 
L 3431 0 
L 469 0 
L 469 531 
Q 828 903 1448 1529 
Q 2069 2156 2228 2338 
Q 2531 2678 2651 2914 
Q 2772 3150 2772 3378 
Q 2772 3750 2511 3984 
Q 2250 4219 1831 4219 
Q 1534 4219 1204 4116 
Q 875 4013 500 3803 
L 500 4441 
Q 881 4594 1212 4672 
Q 1544 4750 1819 4750 
Q 2544 4750 2975 4387 
Q 3406 4025 3406 3419 
Q 3406 3131 3298 2873 
Q 3191 2616 2906 2266 
Q 2828 2175 2409 1742 
Q 1991 1309 1228 531 
z
" transform="scale(0.015625)"/>
       </defs>
       <use xlink:href="#DejaVuSans-c9c"/>
       <use xlink:href="#DejaVuSans-15" transform="translate(83.796875 0)"/>
      </g>
     </g>
    </g>
    <g id="xtick_3">
     <g id="line2d_7">
      <path d="M 204.766104 459.117656 
L 204.766104 36.436719 
" clip-path="url(#pf8d742e1d4)" style="fill: none; stroke-dasharray: 2.96,1.28; stroke-dashoffset: 0; stroke: #cccccc; stroke-opacity: 0.5; stroke-width: 0.8"/>
     </g>
     <g id="line2d_8">
      <g>
       <use xlink:href="#m4250375419" x="204.766104" y="459.117656" style="stroke: #000000; stroke-width: 0.8"/>
      </g>
     </g>
     <g id="text_3">
      <!-- −1 -->
      <g transform="translate(197.39501 473.715312) scale(0.1 -0.1)">
       <defs>
        <path id="DejaVuSans-14" d="M 794 531 
L 1825 531 
L 1825 4091 
L 703 3866 
L 703 4441 
L 1819 4666 
L 2450 4666 
L 2450 531 
L 3481 531 
L 3481 0 
L 794 0 
L 794 531 
z
" transform="scale(0.015625)"/>
       </defs>
       <use xlink:href="#DejaVuSans-c9c"/>
       <use xlink:href="#DejaVuSans-14" transform="translate(83.796875 0)"/>
      </g>
     </g>
    </g>
    <g id="xtick_4">
     <g id="line2d_9">
      <path d="M 270.81 459.117656 
L 270.81 36.436719 
" clip-path="url(#pf8d742e1d4)" style="fill: none; stroke-dasharray: 2.96,1.28; stroke-dashoffset: 0; stroke: #cccccc; stroke-opacity: 0.5; stroke-width: 0.8"/>
     </g>
     <g id="line2d_10">
      <g>
       <use xlink:href="#m4250375419" x="270.81" y="459.117656" style="stroke: #000000; stroke-width: 0.8"/>
      </g>
     </g>
     <g id="text_4">
      <!-- 0 -->
      <g transform="translate(267.62875 473.715312) scale(0.1 -0.1)">
       <defs>
        <path id="DejaVuSans-13" d="M 2034 4250 
Q 1547 4250 1301 3770 
Q 1056 3291 1056 2328 
Q 1056 1369 1301 889 
Q 1547 409 2034 409 
Q 2525 409 2770 889 
Q 3016 1369 3016 2328 
Q 3016 3291 2770 3770 
Q 2525 4250 2034 4250 
z
M 2034 4750 
Q 2819 4750 3233 4129 
Q 3647 3509 3647 2328 
Q 3647 1150 3233 529 
Q 2819 -91 2034 -91 
Q 1250 -91 836 529 
Q 422 1150 422 2328 
Q 422 3509 836 4129 
Q 1250 4750 2034 4750 
z
" transform="scale(0.015625)"/>
       </defs>
       <use xlink:href="#DejaVuSans-13"/>
      </g>
     </g>
    </g>
    <g id="xtick_5">
     <g id="line2d_11">
      <path d="M 336.853896 459.117656 
L 336.853896 36.436719 
" clip-path="url(#pf8d742e1d4)" style="fill: none; stroke-dasharray: 2.96,1.28; stroke-dashoffset: 0; stroke: #cccccc; stroke-opacity: 0.5; stroke-width: 0.8"/>
     </g>
     <g id="line2d_12">
      <g>
       <use xlink:href="#m4250375419" x="336.853896" y="459.117656" style="stroke: #000000; stroke-width: 0.8"/>
      </g>
     </g>
     <g id="text_5">
      <!-- 1 -->
      <g transform="translate(333.672646 473.715312) scale(0.1 -0.1)">
       <use xlink:href="#DejaVuSans-14"/>
      </g>
     </g>
    </g>
    <g id="xtick_6">
     <g id="line2d_13">
      <path d="M 402.897793 459.117656 
L 402.897793 36.436719 
" clip-path="url(#pf8d742e1d4)" style="fill: none; stroke-dasharray: 2.96,1.28; stroke-dashoffset: 0; stroke: #cccccc; stroke-opacity: 0.5; stroke-width: 0.8"/>
     </g>
     <g id="line2d_14">
      <g>
       <use xlink:href="#m4250375419" x="402.897793" y="459.117656" style="stroke: #000000; stroke-width: 0.8"/>
      </g>
     </g>
     <g id="text_6">
      <!-- 2 -->
      <g transform="translate(399.716543 473.715312) scale(0.1 -0.1)">
       <use xlink:href="#DejaVuSans-15"/>
      </g>
     </g>
    </g>
    <g id="xtick_7">
     <g id="line2d_15">
      <path d="M 468.941689 459.117656 
L 468.941689 36.436719 
" clip-path="url(#pf8d742e1d4)" style="fill: none; stroke-dasharray: 2.96,1.28; stroke-dashoffset: 0; stroke: #cccccc; stroke-opacity: 0.5; stroke-width: 0.8"/>
     </g>
     <g id="line2d_16">
      <g>
       <use xlink:href="#m4250375419" x="468.941689" y="459.117656" style="stroke: #000000; stroke-width: 0.8"/>
      </g>
     </g>
     <g id="text_7">
      <!-- 3 -->
      <g transform="translate(465.760439 473.715312) scale(0.1 -0.1)">
       <use xlink:href="#DejaVuSans-16"/>
      </g>
     </g>
    </g>
    <g id="text_8">
     <!-- Re(z) -->
     <g transform="translate(251.671562 489.994609) scale(0.13 -0.13)">
      <defs>
       <path id="DejaVuSans-Bold-35" d="M 2297 2597 
Q 2675 2597 2839 2737 
Q 3003 2878 3003 3200 
Q 3003 3519 2839 3656 
Q 2675 3794 2297 3794 
L 1791 3794 
L 1791 2597 
L 2297 2597 
z
M 1791 1766 
L 1791 0 
L 588 0 
L 588 4666 
L 2425 4666 
Q 3347 4666 3776 4356 
Q 4206 4047 4206 3378 
Q 4206 2916 3982 2619 
Q 3759 2322 3309 2181 
Q 3556 2125 3751 1926 
Q 3947 1728 4147 1325 
L 4800 0 
L 3519 0 
L 2950 1159 
Q 2778 1509 2601 1637 
Q 2425 1766 2131 1766 
L 1791 1766 
z
" transform="scale(0.015625)"/>
       <path id="DejaVuSans-Bold-48" d="M 4031 1759 
L 4031 1441 
L 1416 1441 
Q 1456 1047 1700 850 
Q 1944 653 2381 653 
Q 2734 653 3104 758 
Q 3475 863 3866 1075 
L 3866 213 
Q 3469 63 3072 -14 
Q 2675 -91 2278 -91 
Q 1328 -91 801 392 
Q 275 875 275 1747 
Q 275 2603 792 3093 
Q 1309 3584 2216 3584 
Q 3041 3584 3536 3087 
Q 4031 2591 4031 1759 
z
M 2881 2131 
Q 2881 2450 2695 2645 
Q 2509 2841 2209 2841 
Q 1884 2841 1681 2658 
Q 1478 2475 1428 2131 
L 2881 2131 
z
" transform="scale(0.015625)"/>
       <path id="DejaVuSans-Bold-b" d="M 2413 -844 
L 1484 -844 
Q 1006 -72 778 623 
Q 550 1319 550 2003 
Q 550 2688 779 3389 
Q 1009 4091 1484 4856 
L 2413 4856 
Q 2013 4116 1813 3408 
Q 1613 2700 1613 2009 
Q 1613 1319 1811 609 
Q 2009 -100 2413 -844 
z
" transform="scale(0.015625)"/>
       <path id="DejaVuSans-Bold-5d" d="M 366 3500 
L 3419 3500 
L 3419 2719 
L 1575 800 
L 3419 800 
L 3419 0 
L 288 0 
L 288 781 
L 2131 2700 
L 366 2700 
L 366 3500 
z
" transform="scale(0.015625)"/>
       <path id="DejaVuSans-Bold-c" d="M 513 -844 
Q 913 -100 1113 609 
Q 1313 1319 1313 2009 
Q 1313 2700 1113 3408 
Q 913 4116 513 4856 
L 1441 4856 
Q 1916 4091 2145 3389 
Q 2375 2688 2375 2003 
Q 2375 1319 2147 623 
Q 1919 -72 1441 -844 
L 513 -844 
z
" transform="scale(0.015625)"/>
      </defs>
      <use xlink:href="#DejaVuSans-Bold-35"/>
      <use xlink:href="#DejaVuSans-Bold-48" transform="translate(77 0)"/>
      <use xlink:href="#DejaVuSans-Bold-b" transform="translate(144.828125 0)"/>
      <use xlink:href="#DejaVuSans-Bold-5d" transform="translate(190.53125 0)"/>
      <use xlink:href="#DejaVuSans-Bold-c" transform="translate(248.734375 0)"/>
     </g>
    </g>
   </g>
   <g id="matplotlib.axis_2">
    <g id="ytick_1">
     <g id="line2d_17">
      <path d="M 59.469531 445.908877 
L 482.150469 445.908877 
" clip-path="url(#pf8d742e1d4)" style="fill: none; stroke-dasharray: 2.96,1.28; stroke-dashoffset: 0; stroke: #cccccc; stroke-opacity: 0.5; stroke-width: 0.8"/>
     </g>
     <g id="line2d_18">
      <defs>
       <path id="meba2a93b57" d="M 0 0 
L -3.5 0 
" style="stroke: #000000; stroke-width: 0.8"/>
      </defs>
      <g>
       <use xlink:href="#meba2a93b57" x="59.469531" y="445.908877" style="stroke: #000000; stroke-width: 0.8"/>
      </g>
     </g>
     <g id="text_9">
      <!-- −2 -->
      <g transform="translate(37.727344 449.707705) scale(0.1 -0.1)">
       <use xlink:href="#DejaVuSans-c9c"/>
       <use xlink:href="#DejaVuSans-15" transform="translate(83.796875 0)"/>
      </g>
     </g>
    </g>
    <g id="ytick_2">
     <g id="line2d_19">
      <path d="M 59.469531 379.86498 
L 482.150469 379.86498 
" clip-path="url(#pf8d742e1d4)" style="fill: none; stroke-dasharray: 2.96,1.28; stroke-dashoffset: 0; stroke: #cccccc; stroke-opacity: 0.5; stroke-width: 0.8"/>
     </g>
     <g id="line2d_20">
      <g>
       <use xlink:href="#meba2a93b57" x="59.469531" y="379.86498" style="stroke: #000000; stroke-width: 0.8"/>
      </g>
     </g>
     <g id="text_10">
      <!-- −1 -->
      <g transform="translate(37.727344 383.663809) scale(0.1 -0.1)">
       <use xlink:href="#DejaVuSans-c9c"/>
       <use xlink:href="#DejaVuSans-14" transform="translate(83.796875 0)"/>
      </g>
     </g>
    </g>
    <g id="ytick_3">
     <g id="line2d_21">
      <path d="M 59.469531 313.821084 
L 482.150469 313.821084 
" clip-path="url(#pf8d742e1d4)" style="fill: none; stroke-dasharray: 2.96,1.28; stroke-dashoffset: 0; stroke: #cccccc; stroke-opacity: 0.5; stroke-width: 0.8"/>
     </g>
     <g id="line2d_22">
      <g>
       <use xlink:href="#meba2a93b57" x="59.469531" y="313.821084" style="stroke: #000000; stroke-width: 0.8"/>
      </g>
     </g>
     <g id="text_11">
      <!-- 0 -->
      <g transform="translate(46.107031 317.619912) scale(0.1 -0.1)">
       <use xlink:href="#DejaVuSans-13"/>
      </g>
     </g>
    </g>
    <g id="ytick_4">
     <g id="line2d_23">
      <path d="M 59.469531 247.777187 
L 482.150469 247.777187 
" clip-path="url(#pf8d742e1d4)" style="fill: none; stroke-dasharray: 2.96,1.28; stroke-dashoffset: 0; stroke: #cccccc; stroke-opacity: 0.5; stroke-width: 0.8"/>
     </g>
     <g id="line2d_24">
      <g>
       <use xlink:href="#meba2a93b57" x="59.469531" y="247.777187" style="stroke: #000000; stroke-width: 0.8"/>
      </g>
     </g>
     <g id="text_12">
      <!-- 1 -->
      <g transform="translate(46.107031 251.576016) scale(0.1 -0.1)">
       <use xlink:href="#DejaVuSans-14"/>
      </g>
     </g>
    </g>
    <g id="ytick_5">
     <g id="line2d_25">
      <path d="M 59.469531 181.733291 
L 482.150469 181.733291 
" clip-path="url(#pf8d742e1d4)" style="fill: none; stroke-dasharray: 2.96,1.28; stroke-dashoffset: 0; stroke: #cccccc; stroke-opacity: 0.5; stroke-width: 0.8"/>
     </g>
     <g id="line2d_26">
      <g>
       <use xlink:href="#meba2a93b57" x="59.469531" y="181.733291" style="stroke: #000000; stroke-width: 0.8"/>
      </g>
     </g>
     <g id="text_13">
      <!-- 2 -->
      <g transform="translate(46.107031 185.532119) scale(0.1 -0.1)">
       <use xlink:href="#DejaVuSans-15"/>
      </g>
     </g>
    </g>
    <g id="ytick_6">
     <g id="line2d_27">
      <path d="M 59.469531 115.689395 
L 482.150469 115.689395 
" clip-path="url(#pf8d742e1d4)" style="fill: none; stroke-dasharray: 2.96,1.28; stroke-dashoffset: 0; stroke: #cccccc; stroke-opacity: 0.5; stroke-width: 0.8"/>
     </g>
     <g id="line2d_28">
      <g>
       <use xlink:href="#meba2a93b57" x="59.469531" y="115.689395" style="stroke: #000000; stroke-width: 0.8"/>
      </g>
     </g>
     <g id="text_14">
      <!-- 3 -->
      <g transform="translate(46.107031 119.488223) scale(0.1 -0.1)">
       <use xlink:href="#DejaVuSans-16"/>
      </g>
     </g>
    </g>
    <g id="ytick_7">
     <g id="line2d_29">
      <path d="M 59.469531 49.645498 
L 482.150469 49.645498 
" clip-path="url(#pf8d742e1d4)" style="fill: none; stroke-dasharray: 2.96,1.28; stroke-dashoffset: 0; stroke: #cccccc; stroke-opacity: 0.5; stroke-width: 0.8"/>
     </g>
     <g id="line2d_30">
      <g>
       <use xlink:href="#meba2a93b57" x="59.469531" y="49.645498" style="stroke: #000000; stroke-width: 0.8"/>
      </g>
     </g>
     <g id="text_15">
      <!-- 4 -->
      <g transform="translate(46.107031 53.444326) scale(0.1 -0.1)">
       <defs>
        <path id="DejaVuSans-17" d="M 2419 4116 
L 825 1625 
L 2419 1625 
L 2419 4116 
z
M 2253 4666 
L 3047 4666 
L 3047 1625 
L 3713 1625 
L 3713 1100 
L 3047 1100 
L 3047 0 
L 2419 0 
L 2419 1100 
L 313 1100 
L 313 1709 
L 2253 4666 
z
" transform="scale(0.015625)"/>
       </defs>
       <use xlink:href="#DejaVuSans-17"/>
      </g>
     </g>
    </g>
    <g id="text_16">
     <!-- Im(z) -->
     <g transform="translate(30.604297 266.693203) rotate(-90) scale(0.13 -0.13)">
      <defs>
       <path id="DejaVuSans-Bold-2c" d="M 588 4666 
L 1791 4666 
L 1791 0 
L 588 0 
L 588 4666 
z
" transform="scale(0.015625)"/>
       <path id="DejaVuSans-Bold-50" d="M 3781 2919 
Q 3994 3244 4286 3414 
Q 4578 3584 4928 3584 
Q 5531 3584 5847 3212 
Q 6163 2841 6163 2131 
L 6163 0 
L 5038 0 
L 5038 1825 
Q 5041 1866 5042 1909 
Q 5044 1953 5044 2034 
Q 5044 2406 4934 2573 
Q 4825 2741 4581 2741 
Q 4263 2741 4089 2478 
Q 3916 2216 3909 1719 
L 3909 0 
L 2784 0 
L 2784 1825 
Q 2784 2406 2684 2573 
Q 2584 2741 2328 2741 
Q 2006 2741 1831 2477 
Q 1656 2213 1656 1722 
L 1656 0 
L 531 0 
L 531 3500 
L 1656 3500 
L 1656 2988 
Q 1863 3284 2130 3434 
Q 2397 3584 2719 3584 
Q 3081 3584 3359 3409 
Q 3638 3234 3781 2919 
z
" transform="scale(0.015625)"/>
      </defs>
      <use xlink:href="#DejaVuSans-Bold-2c"/>
      <use xlink:href="#DejaVuSans-Bold-50" transform="translate(37.203125 0)"/>
      <use xlink:href="#DejaVuSans-Bold-b" transform="translate(141.40625 0)"/>
      <use xlink:href="#DejaVuSans-Bold-5d" transform="translate(187.109375 0)"/>
      <use xlink:href="#DejaVuSans-Bold-c" transform="translate(245.3125 0)"/>
     </g>
    </g>
   </g>
   <g id="patch_3">
    <path d="M 59.469531 459.117656 
L 59.469531 36.436719 
" style="fill: none; stroke: #000000; stroke-width: 0.8; stroke-linejoin: miter; stroke-linecap: square"/>
   </g>
   <g id="patch_4">
    <path d="M 482.150469 459.117656 
L 482.150469 36.436719 
" style="fill: none; stroke: #000000; stroke-width: 0.8; stroke-linejoin: miter; stroke-linecap: square"/>
   </g>
   <g id="patch_5">
    <path d="M 59.469531 459.117656 
L 482.150469 459.117656 
" style="fill: none; stroke: #000000; stroke-width: 0.8; stroke-linejoin: miter; stroke-linecap: square"/>
   </g>
   <g id="patch_6">
    <path d="M 59.469531 36.436719 
L 482.150469 36.436719 
" style="fill: none; stroke: #000000; stroke-width: 0.8; stroke-linejoin: miter; stroke-linecap: square"/>
   </g>
   <g id="line2d_31">
    <path d="M 402.897793 247.777187 
L 402.750423 241.539418 
L 402.308643 235.315566 
L 401.573437 229.119522 
L 400.546448 222.96511 
L 399.229965 216.866064 
L 397.626928 210.835993 
L 395.740912 204.888351 
L 393.576127 199.036412 
L 391.137402 193.293232 
L 388.43018 187.671627 
L 385.460501 182.184141 
L 382.234992 176.843019 
L 378.76085 171.660179 
L 375.045828 166.647186 
L 371.098215 161.815225 
L 366.92682 157.175079 
L 362.54095 152.737102 
L 357.950393 148.511197 
L 353.165392 144.506793 
L 348.196623 140.732825 
L 343.055175 137.197715 
L 337.75252 133.909351 
L 332.300489 130.875071 
L 326.711249 128.101645 
L 320.997272 125.595263 
L 315.171307 123.361515 
L 309.246355 121.405388 
L 303.235636 119.731246 
L 297.152563 118.342824 
L 291.01071 117.243221 
L 284.82378 116.43489 
L 278.605581 115.919636 
L 272.369986 115.698607 
L 266.130911 115.772297 
L 259.902277 116.140541 
L 253.697981 116.802519 
L 247.53187 117.756752 
L 241.417701 119.001111 
L 235.369118 120.532821 
L 229.399617 122.348462 
L 223.522519 124.443984 
L 217.750938 126.81471 
L 212.097752 129.455351 
L 206.575577 132.360014 
L 201.196733 135.522218 
L 195.973224 138.934907 
L 190.916705 142.590466 
L 186.038459 146.480737 
L 181.349372 150.59704 
L 176.859906 154.93019 
L 172.58008 159.470518 
L 168.519443 164.207893 
L 164.687056 169.131743 
L 161.091471 174.231083 
L 157.740711 179.494532 
L 154.642253 184.910347 
L 151.803011 190.466442 
L 149.229319 196.15042 
L 146.926922 201.949597 
L 144.900956 207.851034 
L 143.155943 213.841561 
L 141.695775 219.907813 
L 140.523712 226.036251 
L 139.642369 232.213203 
L 139.053712 238.424883 
L 138.759055 244.657432 
L 138.759055 250.896943 
L 139.053712 257.129492 
L 139.642369 263.341172 
L 140.523712 269.518124 
L 141.695775 275.646562 
L 143.155943 281.712814 
L 144.900956 287.703341 
L 146.926922 293.604778 
L 149.229319 299.403955 
L 151.803011 305.087933 
L 154.642253 310.644028 
L 157.740711 316.059843 
L 161.091471 321.323292 
L 164.687056 326.422632 
L 168.519443 331.346482 
L 172.58008 336.083857 
L 176.859906 340.624185 
L 181.349372 344.957335 
L 186.038459 349.073638 
L 190.916705 352.963909 
L 195.973224 356.619468 
L 201.196733 360.032157 
L 206.575577 363.194361 
L 212.097752 366.099024 
L 217.750938 368.739665 
L 223.522519 371.110391 
L 229.399617 373.205913 
L 235.369118 375.021554 
L 241.417701 376.553264 
L 247.53187 377.797623 
L 253.697981 378.751856 
L 259.902277 379.413834 
L 266.130911 379.782078 
L 272.369986 379.855768 
L 278.605581 379.634739 
L 284.82378 379.119485 
L 291.01071 378.311154 
L 297.152563 377.211551 
L 303.235636 375.823129 
L 309.246355 374.148987 
L 315.171307 372.19286 
L 320.997272 369.959112 
L 326.711249 367.45273 
L 332.300489 364.679304 
L 337.75252 361.645024 
L 343.055175 358.35666 
L 348.196623 354.82155 
L 353.165392 351.047582 
L 357.950393 347.043178 
L 362.54095 342.817273 
L 366.92682 338.379296 
L 371.098215 333.73915 
L 375.045828 328.907189 
L 378.76085 323.894196 
L 382.234992 318.711356 
L 385.460501 313.370234 
L 388.43018 307.882748 
L 391.137402 302.261143 
L 393.576127 296.517963 
L 395.740912 290.666024 
L 397.626928 284.718382 
L 399.229965 278.688311 
L 400.546448 272.589265 
L 401.573437 266.434853 
L 402.308643 260.238809 
L 402.750423 254.014957 
L 402.897793 247.777188 
L 402.897793 247.777188 
" clip-path="url(#pf8d742e1d4)" style="fill: none; stroke: #1f77b4; stroke-width: 2.5; stroke-linecap: square"/>
   </g>
   <g id="line2d_32">
    <path d="M 336.853896 478.930825 
L 336.853896 16.62355 
L 336.853896 16.62355 
" clip-path="url(#pf8d742e1d4)" style="fill: none; stroke: #ff7f0e; stroke-width: 2.5; stroke-linecap: square"/>
   </g>
   <g id="text_17">
    <!-- Centrum z_0 = i -->
    <g style="fill: #1f77b4" transform="translate(175.81 242.777187) scale(0.11 -0.11)">
     <defs>
      <path id="DejaVuSans-Bold-26" d="M 4288 256 
Q 3956 84 3597 -3 
Q 3238 -91 2847 -91 
Q 1681 -91 1000 561 
Q 319 1213 319 2328 
Q 319 3447 1000 4098 
Q 1681 4750 2847 4750 
Q 3238 4750 3597 4662 
Q 3956 4575 4288 4403 
L 4288 3438 
Q 3953 3666 3628 3772 
Q 3303 3878 2944 3878 
Q 2300 3878 1931 3465 
Q 1563 3053 1563 2328 
Q 1563 1606 1931 1193 
Q 2300 781 2944 781 
Q 3303 781 3628 887 
Q 3953 994 4288 1222 
L 4288 256 
z
" transform="scale(0.015625)"/>
      <path id="DejaVuSans-Bold-51" d="M 4056 2131 
L 4056 0 
L 2931 0 
L 2931 347 
L 2931 1631 
Q 2931 2084 2911 2256 
Q 2891 2428 2841 2509 
Q 2775 2619 2662 2680 
Q 2550 2741 2406 2741 
Q 2056 2741 1856 2470 
Q 1656 2200 1656 1722 
L 1656 0 
L 538 0 
L 538 3500 
L 1656 3500 
L 1656 2988 
Q 1909 3294 2193 3439 
Q 2478 3584 2822 3584 
Q 3428 3584 3742 3212 
Q 4056 2841 4056 2131 
z
" transform="scale(0.015625)"/>
      <path id="DejaVuSans-Bold-57" d="M 1759 4494 
L 1759 3500 
L 2913 3500 
L 2913 2700 
L 1759 2700 
L 1759 1216 
Q 1759 972 1856 886 
Q 1953 800 2241 800 
L 2816 800 
L 2816 0 
L 1856 0 
Q 1194 0 917 276 
Q 641 553 641 1216 
L 641 2700 
L 84 2700 
L 84 3500 
L 641 3500 
L 641 4494 
L 1759 4494 
z
" transform="scale(0.015625)"/>
      <path id="DejaVuSans-Bold-55" d="M 3138 2547 
Q 2991 2616 2845 2648 
Q 2700 2681 2553 2681 
Q 2122 2681 1889 2404 
Q 1656 2128 1656 1613 
L 1656 0 
L 538 0 
L 538 3500 
L 1656 3500 
L 1656 2925 
Q 1872 3269 2151 3426 
Q 2431 3584 2822 3584 
Q 2878 3584 2943 3579 
Q 3009 3575 3134 3559 
L 3138 2547 
z
" transform="scale(0.015625)"/>
      <path id="DejaVuSans-Bold-58" d="M 500 1363 
L 500 3500 
L 1625 3500 
L 1625 3150 
Q 1625 2866 1622 2436 
Q 1619 2006 1619 1863 
Q 1619 1441 1641 1255 
Q 1663 1069 1716 984 
Q 1784 875 1895 815 
Q 2006 756 2150 756 
Q 2500 756 2700 1025 
Q 2900 1294 2900 1772 
L 2900 3500 
L 4019 3500 
L 4019 0 
L 2900 0 
L 2900 506 
Q 2647 200 2364 54 
Q 2081 -91 1741 -91 
Q 1134 -91 817 281 
Q 500 653 500 1363 
z
" transform="scale(0.015625)"/>
      <path id="DejaVuSans-Bold-3" transform="scale(0.015625)"/>
      <path id="DejaVuSans-Bold-42" d="M 3200 -916 
L 3200 -1509 
L 0 -1509 
L 0 -916 
L 3200 -916 
z
" transform="scale(0.015625)"/>
      <path id="DejaVuSans-Bold-13" d="M 2944 2338 
Q 2944 3213 2780 3570 
Q 2616 3928 2228 3928 
Q 1841 3928 1675 3570 
Q 1509 3213 1509 2338 
Q 1509 1453 1675 1090 
Q 1841 728 2228 728 
Q 2613 728 2778 1090 
Q 2944 1453 2944 2338 
z
M 4147 2328 
Q 4147 1169 3647 539 
Q 3147 -91 2228 -91 
Q 1306 -91 806 539 
Q 306 1169 306 2328 
Q 306 3491 806 4120 
Q 1306 4750 2228 4750 
Q 3147 4750 3647 4120 
Q 4147 3491 4147 2328 
z
" transform="scale(0.015625)"/>
      <path id="DejaVuSans-Bold-20" d="M 678 3084 
L 4684 3084 
L 4684 2350 
L 678 2350 
L 678 3084 
z
M 678 1663 
L 4684 1663 
L 4684 922 
L 678 922 
L 678 1663 
z
" transform="scale(0.015625)"/>
      <path id="DejaVuSans-Bold-4c" d="M 538 3500 
L 1656 3500 
L 1656 0 
L 538 0 
L 538 3500 
z
M 538 4863 
L 1656 4863 
L 1656 3950 
L 538 3950 
L 538 4863 
z
" transform="scale(0.015625)"/>
     </defs>
     <use xlink:href="#DejaVuSans-Bold-26"/>
     <use xlink:href="#DejaVuSans-Bold-48" transform="translate(73.390625 0)"/>
     <use xlink:href="#DejaVuSans-Bold-51" transform="translate(141.21875 0)"/>
     <use xlink:href="#DejaVuSans-Bold-57" transform="translate(212.40625 0)"/>
     <use xlink:href="#DejaVuSans-Bold-55" transform="translate(260.203125 0)"/>
     <use xlink:href="#DejaVuSans-Bold-58" transform="translate(309.515625 0)"/>
     <use xlink:href="#DejaVuSans-Bold-50" transform="translate(380.703125 0)"/>
     <use xlink:href="#DejaVuSans-Bold-3" transform="translate(484.90625 0)"/>
     <use xlink:href="#DejaVuSans-Bold-5d" transform="translate(519.71875 0)"/>
     <use xlink:href="#DejaVuSans-Bold-42" transform="translate(577.921875 0)"/>
     <use xlink:href="#DejaVuSans-Bold-13" transform="translate(627.921875 0)"/>
     <use xlink:href="#DejaVuSans-Bold-3" transform="translate(697.5 0)"/>
     <use xlink:href="#DejaVuSans-Bold-20" transform="translate(732.3125 0)"/>
     <use xlink:href="#DejaVuSans-Bold-3" transform="translate(816.109375 0)"/>
     <use xlink:href="#DejaVuSans-Bold-4c" transform="translate(850.921875 0)"/>
    </g>
   </g>
   <g id="text_18">
    <!-- $z_1 = 1 + (1+\sqrt{3})i$ -->
    <g style="fill: #d62728" transform="translate(348.853896 135.385803) scale(0.11 -0.11)">
     <defs>
      <path id="DejaVuSans-Oblique-5d" d="M 744 3500 
L 3475 3500 
L 3372 2975 
L 738 459 
L 2913 459 
L 2822 0 
L -19 0 
L 84 525 
L 2719 3041 
L 653 3041 
L 744 3500 
z
" transform="scale(0.015625)"/>
      <path id="DejaVuSans-20" d="M 678 2906 
L 4684 2906 
L 4684 2381 
L 678 2381 
L 678 2906 
z
M 678 1631 
L 4684 1631 
L 4684 1100 
L 678 1100 
L 678 1631 
z
" transform="scale(0.015625)"/>
      <path id="DejaVuSans-e" d="M 2944 4013 
L 2944 2272 
L 4684 2272 
L 4684 1741 
L 2944 1741 
L 2944 0 
L 2419 0 
L 2419 1741 
L 678 1741 
L 678 2272 
L 2419 2272 
L 2419 4013 
L 2944 4013 
z
" transform="scale(0.015625)"/>
      <path id="DejaVuSans-b" d="M 1984 4856 
Q 1566 4138 1362 3434 
Q 1159 2731 1159 2009 
Q 1159 1288 1364 580 
Q 1569 -128 1984 -844 
L 1484 -844 
Q 1016 -109 783 600 
Q 550 1309 550 2009 
Q 550 2706 781 3412 
Q 1013 4119 1484 4856 
L 1984 4856 
z
" transform="scale(0.015625)"/>
      <path id="STIXSizeOneSym-Regular-26" d="M 6970 9933 
L 3373 -1888 
L 3104 -1888 
L 1626 2918 
Q 1555 3149 1465 3251 
Q 1376 3354 1229 3354 
Q 1011 3354 794 3181 
L 717 3309 
L 1766 4115 
L 1926 4115 
L 3379 -602 
L 3405 -602 
L 6605 9933 
L 6970 9933 
z
" transform="scale(0.015625)"/>
      <path id="DejaVuSans-c" d="M 513 4856 
L 1013 4856 
Q 1481 4119 1714 3412 
Q 1947 2706 1947 2009 
Q 1947 1309 1714 600 
Q 1481 -109 1013 -844 
L 513 -844 
Q 928 -128 1133 580 
Q 1338 1288 1338 2009 
Q 1338 2731 1133 3434 
Q 928 4138 513 4856 
z
" transform="scale(0.015625)"/>
      <path id="DejaVuSans-Oblique-4c" d="M 1172 4863 
L 1747 4863 
L 1606 4134 
L 1031 4134 
L 1172 4863 
z
M 909 3500 
L 1484 3500 
L 800 0 
L 225 0 
L 909 3500 
z
" transform="scale(0.015625)"/>
     </defs>
     <use xlink:href="#DejaVuSans-Oblique-5d" transform="translate(0 0.5625)"/>
     <use xlink:href="#DejaVuSans-14" transform="translate(52.490234 -14.437451) scale(0.7)"/>
     <use xlink:href="#DejaVuSans-20" transform="translate(119.243164 0.5625)"/>
     <use xlink:href="#DejaVuSans-14" transform="translate(222.514648 0.5625)"/>
     <use xlink:href="#DejaVuSans-e" transform="translate(305.620117 0.5625)"/>
     <use xlink:href="#DejaVuSans-b" transform="translate(408.891602 0.5625)"/>
     <use xlink:href="#DejaVuSans-14" transform="translate(447.905273 0.5625)"/>
     <use xlink:href="#DejaVuSans-e" transform="translate(531.010742 0.5625)"/>
     <use xlink:href="#STIXSizeOneSym-Regular-26" transform="translate(634.282227 16.203125) scale(0.578716)"/>
     <use xlink:href="#DejaVuSans-16" transform="translate(707.939636 0.53125)"/>
     <use xlink:href="#DejaVuSans-c" transform="translate(784.062683 0.5625)"/>
     <use xlink:href="#DejaVuSans-Oblique-4c" transform="translate(823.076355 0.5625)"/>
     <path d="M 695.439636 105.75 
L 695.439636 112 
L 784.062683 112 
L 784.062683 105.75 
L 695.439636 105.75 
z
"/>
    </g>
   </g>
   <g id="text_19">
    <!-- $z_2 = 1 + (1-\sqrt{3})i$ -->
    <g style="fill: #d62728" transform="translate(348.853896 372.168572) scale(0.11 -0.11)">
     <use xlink:href="#DejaVuSans-Oblique-5d" transform="translate(0 0.5625)"/>
     <use xlink:href="#DejaVuSans-15" transform="translate(52.490234 -14.437451) scale(0.7)"/>
     <use xlink:href="#DejaVuSans-20" transform="translate(119.243164 0.5625)"/>
     <use xlink:href="#DejaVuSans-14" transform="translate(222.514648 0.5625)"/>
     <use xlink:href="#DejaVuSans-e" transform="translate(305.620117 0.5625)"/>
     <use xlink:href="#DejaVuSans-b" transform="translate(408.891602 0.5625)"/>
     <use xlink:href="#DejaVuSans-14" transform="translate(447.905273 0.5625)"/>
     <use xlink:href="#DejaVuSans-c9c" transform="translate(531.010742 0.5625)"/>
     <use xlink:href="#STIXSizeOneSym-Regular-26" transform="translate(634.282227 16.203125) scale(0.578716)"/>
     <use xlink:href="#DejaVuSans-16" transform="translate(707.939636 0.53125)"/>
     <use xlink:href="#DejaVuSans-c" transform="translate(784.062683 0.5625)"/>
     <use xlink:href="#DejaVuSans-Oblique-4c" transform="translate(823.076355 0.5625)"/>
     <path d="M 695.439636 105.75 
L 695.439636 112 
L 784.062683 112 
L 784.062683 105.75 
L 695.439636 105.75 
z
"/>
    </g>
   </g>
   <g id="text_20">
    <!-- Den komplekse talplan: Maengderne A, B og A snit B -->
    <g transform="translate(62.27125 21.436719) scale(0.14 -0.14)">
     <defs>
      <path id="DejaVuSans-Bold-27" d="M 1791 3756 
L 1791 909 
L 2222 909 
Q 2959 909 3348 1275 
Q 3738 1641 3738 2338 
Q 3738 3031 3350 3393 
Q 2963 3756 2222 3756 
L 1791 3756 
z
M 588 4666 
L 1856 4666 
Q 2919 4666 3439 4514 
Q 3959 4363 4331 4000 
Q 4659 3684 4818 3271 
Q 4978 2859 4978 2338 
Q 4978 1809 4818 1395 
Q 4659 981 4331 666 
Q 3956 303 3431 151 
Q 2906 0 1856 0 
L 588 0 
L 588 4666 
z
" transform="scale(0.015625)"/>
      <path id="DejaVuSans-Bold-4e" d="M 538 4863 
L 1656 4863 
L 1656 2216 
L 2944 3500 
L 4244 3500 
L 2534 1894 
L 4378 0 
L 3022 0 
L 1656 1459 
L 1656 0 
L 538 0 
L 538 4863 
z
" transform="scale(0.015625)"/>
      <path id="DejaVuSans-Bold-52" d="M 2203 2784 
Q 1831 2784 1636 2517 
Q 1441 2250 1441 1747 
Q 1441 1244 1636 976 
Q 1831 709 2203 709 
Q 2569 709 2762 976 
Q 2956 1244 2956 1747 
Q 2956 2250 2762 2517 
Q 2569 2784 2203 2784 
z
M 2203 3584 
Q 3106 3584 3614 3096 
Q 4122 2609 4122 1747 
Q 4122 884 3614 396 
Q 3106 -91 2203 -91 
Q 1297 -91 786 396 
Q 275 884 275 1747 
Q 275 2609 786 3096 
Q 1297 3584 2203 3584 
z
" transform="scale(0.015625)"/>
      <path id="DejaVuSans-Bold-53" d="M 1656 506 
L 1656 -1331 
L 538 -1331 
L 538 3500 
L 1656 3500 
L 1656 2988 
Q 1888 3294 2169 3439 
Q 2450 3584 2816 3584 
Q 3463 3584 3878 3070 
Q 4294 2556 4294 1747 
Q 4294 938 3878 423 
Q 3463 -91 2816 -91 
Q 2450 -91 2169 54 
Q 1888 200 1656 506 
z
M 2400 2772 
Q 2041 2772 1848 2508 
Q 1656 2244 1656 1747 
Q 1656 1250 1848 986 
Q 2041 722 2400 722 
Q 2759 722 2948 984 
Q 3138 1247 3138 1747 
Q 3138 2247 2948 2509 
Q 2759 2772 2400 2772 
z
" transform="scale(0.015625)"/>
      <path id="DejaVuSans-Bold-4f" d="M 538 4863 
L 1656 4863 
L 1656 0 
L 538 0 
L 538 4863 
z
" transform="scale(0.015625)"/>
      <path id="DejaVuSans-Bold-56" d="M 3272 3391 
L 3272 2541 
Q 2913 2691 2578 2766 
Q 2244 2841 1947 2841 
Q 1628 2841 1473 2761 
Q 1319 2681 1319 2516 
Q 1319 2381 1436 2309 
Q 1553 2238 1856 2203 
L 2053 2175 
Q 2913 2066 3209 1816 
Q 3506 1566 3506 1031 
Q 3506 472 3093 190 
Q 2681 -91 1863 -91 
Q 1516 -91 1145 -36 
Q 775 19 384 128 
L 384 978 
Q 719 816 1070 734 
Q 1422 653 1784 653 
Q 2113 653 2278 743 
Q 2444 834 2444 1013 
Q 2444 1163 2330 1236 
Q 2216 1309 1875 1350 
L 1678 1375 
Q 931 1469 631 1722 
Q 331 1975 331 2491 
Q 331 3047 712 3315 
Q 1094 3584 1881 3584 
Q 2191 3584 2531 3537 
Q 2872 3491 3272 3391 
z
" transform="scale(0.015625)"/>
      <path id="DejaVuSans-Bold-44" d="M 2106 1575 
Q 1756 1575 1579 1456 
Q 1403 1338 1403 1106 
Q 1403 894 1545 773 
Q 1688 653 1941 653 
Q 2256 653 2472 879 
Q 2688 1106 2688 1447 
L 2688 1575 
L 2106 1575 
z
M 3816 1997 
L 3816 0 
L 2688 0 
L 2688 519 
Q 2463 200 2181 54 
Q 1900 -91 1497 -91 
Q 953 -91 614 226 
Q 275 544 275 1050 
Q 275 1666 698 1953 
Q 1122 2241 2028 2241 
L 2688 2241 
L 2688 2328 
Q 2688 2594 2478 2717 
Q 2269 2841 1825 2841 
Q 1466 2841 1156 2769 
Q 847 2697 581 2553 
L 581 3406 
Q 941 3494 1303 3539 
Q 1666 3584 2028 3584 
Q 2975 3584 3395 3211 
Q 3816 2838 3816 1997 
z
" transform="scale(0.015625)"/>
      <path id="DejaVuSans-Bold-1d" d="M 716 3500 
L 1844 3500 
L 1844 2291 
L 716 2291 
L 716 3500 
z
M 716 1209 
L 1844 1209 
L 1844 0 
L 716 0 
L 716 1209 
z
" transform="scale(0.015625)"/>
      <path id="DejaVuSans-Bold-30" d="M 588 4666 
L 2119 4666 
L 3181 2169 
L 4250 4666 
L 5778 4666 
L 5778 0 
L 4641 0 
L 4641 3413 
L 3566 897 
L 2803 897 
L 1728 3413 
L 1728 0 
L 588 0 
L 588 4666 
z
" transform="scale(0.015625)"/>
      <path id="DejaVuSans-Bold-4a" d="M 2919 594 
Q 2688 288 2409 144 
Q 2131 0 1766 0 
Q 1125 0 706 504 
Q 288 1009 288 1791 
Q 288 2575 706 3076 
Q 1125 3578 1766 3578 
Q 2131 3578 2409 3434 
Q 2688 3291 2919 2981 
L 2919 3500 
L 4044 3500 
L 4044 353 
Q 4044 -491 3511 -936 
Q 2978 -1381 1966 -1381 
Q 1638 -1381 1331 -1331 
Q 1025 -1281 716 -1178 
L 716 -306 
Q 1009 -475 1290 -558 
Q 1572 -641 1856 -641 
Q 2406 -641 2662 -400 
Q 2919 -159 2919 353 
L 2919 594 
z
M 2181 2772 
Q 1834 2772 1640 2515 
Q 1447 2259 1447 1791 
Q 1447 1309 1634 1061 
Q 1822 813 2181 813 
Q 2531 813 2725 1069 
Q 2919 1325 2919 1791 
Q 2919 2259 2725 2515 
Q 2531 2772 2181 2772 
z
" transform="scale(0.015625)"/>
      <path id="DejaVuSans-Bold-47" d="M 2919 2988 
L 2919 4863 
L 4044 4863 
L 4044 0 
L 2919 0 
L 2919 506 
Q 2688 197 2409 53 
Q 2131 -91 1766 -91 
Q 1119 -91 703 423 
Q 288 938 288 1747 
Q 288 2556 703 3070 
Q 1119 3584 1766 3584 
Q 2128 3584 2408 3439 
Q 2688 3294 2919 2988 
z
M 2181 722 
Q 2541 722 2730 984 
Q 2919 1247 2919 1747 
Q 2919 2247 2730 2509 
Q 2541 2772 2181 2772 
Q 1825 2772 1636 2509 
Q 1447 2247 1447 1747 
Q 1447 1247 1636 984 
Q 1825 722 2181 722 
z
" transform="scale(0.015625)"/>
      <path id="DejaVuSans-Bold-24" d="M 3419 850 
L 1538 850 
L 1241 0 
L 31 0 
L 1759 4666 
L 3194 4666 
L 4922 0 
L 3713 0 
L 3419 850 
z
M 1838 1716 
L 3116 1716 
L 2478 3572 
L 1838 1716 
z
" transform="scale(0.015625)"/>
      <path id="DejaVuSans-Bold-f" d="M 653 1209 
L 1778 1209 
L 1778 256 
L 1006 -909 
L 341 -909 
L 653 256 
L 653 1209 
z
" transform="scale(0.015625)"/>
      <path id="DejaVuSans-Bold-25" d="M 2456 2859 
Q 2741 2859 2887 2984 
Q 3034 3109 3034 3353 
Q 3034 3594 2887 3720 
Q 2741 3847 2456 3847 
L 1791 3847 
L 1791 2859 
L 2456 2859 
z
M 2497 819 
Q 2859 819 3042 972 
Q 3225 1125 3225 1434 
Q 3225 1738 3044 1889 
Q 2863 2041 2497 2041 
L 1791 2041 
L 1791 819 
L 2497 819 
z
M 3616 2497 
Q 4003 2384 4215 2081 
Q 4428 1778 4428 1338 
Q 4428 663 3972 331 
Q 3516 0 2584 0 
L 588 0 
L 588 4666 
L 2394 4666 
Q 3366 4666 3802 4372 
Q 4238 4078 4238 3431 
Q 4238 3091 4078 2852 
Q 3919 2613 3616 2497 
z
" transform="scale(0.015625)"/>
     </defs>
     <use xlink:href="#DejaVuSans-Bold-27"/>
     <use xlink:href="#DejaVuSans-Bold-48" transform="translate(83.015625 0)"/>
     <use xlink:href="#DejaVuSans-Bold-51" transform="translate(150.84375 0)"/>
     <use xlink:href="#DejaVuSans-Bold-3" transform="translate(222.03125 0)"/>
     <use xlink:href="#DejaVuSans-Bold-4e" transform="translate(256.84375 0)"/>
     <use xlink:href="#DejaVuSans-Bold-52" transform="translate(320.65625 0)"/>
     <use xlink:href="#DejaVuSans-Bold-50" transform="translate(389.359375 0)"/>
     <use xlink:href="#DejaVuSans-Bold-53" transform="translate(493.5625 0)"/>
     <use xlink:href="#DejaVuSans-Bold-4f" transform="translate(565.140625 0)"/>
     <use xlink:href="#DejaVuSans-Bold-48" transform="translate(599.421875 0)"/>
     <use xlink:href="#DejaVuSans-Bold-4e" transform="translate(667.25 0)"/>
     <use xlink:href="#DejaVuSans-Bold-56" transform="translate(733.75 0)"/>
     <use xlink:href="#DejaVuSans-Bold-48" transform="translate(793.265625 0)"/>
     <use xlink:href="#DejaVuSans-Bold-3" transform="translate(861.09375 0)"/>
     <use xlink:href="#DejaVuSans-Bold-57" transform="translate(895.90625 0)"/>
     <use xlink:href="#DejaVuSans-Bold-44" transform="translate(943.703125 0)"/>
     <use xlink:href="#DejaVuSans-Bold-4f" transform="translate(1011.1875 0)"/>
     <use xlink:href="#DejaVuSans-Bold-53" transform="translate(1045.46875 0)"/>
     <use xlink:href="#DejaVuSans-Bold-4f" transform="translate(1117.046875 0)"/>
     <use xlink:href="#DejaVuSans-Bold-44" transform="translate(1151.328125 0)"/>
     <use xlink:href="#DejaVuSans-Bold-51" transform="translate(1218.8125 0)"/>
     <use xlink:href="#DejaVuSans-Bold-1d" transform="translate(1290 0)"/>
     <use xlink:href="#DejaVuSans-Bold-3" transform="translate(1329.984375 0)"/>
     <use xlink:href="#DejaVuSans-Bold-30" transform="translate(1364.796875 0)"/>
     <use xlink:href="#DejaVuSans-Bold-44" transform="translate(1464.3125 0)"/>
     <use xlink:href="#DejaVuSans-Bold-48" transform="translate(1531.796875 0)"/>
     <use xlink:href="#DejaVuSans-Bold-51" transform="translate(1599.625 0)"/>
     <use xlink:href="#DejaVuSans-Bold-4a" transform="translate(1670.8125 0)"/>
     <use xlink:href="#DejaVuSans-Bold-47" transform="translate(1742.390625 0)"/>
     <use xlink:href="#DejaVuSans-Bold-48" transform="translate(1813.96875 0)"/>
     <use xlink:href="#DejaVuSans-Bold-55" transform="translate(1881.796875 0)"/>
     <use xlink:href="#DejaVuSans-Bold-51" transform="translate(1931.109375 0)"/>
     <use xlink:href="#DejaVuSans-Bold-48" transform="translate(2002.296875 0)"/>
     <use xlink:href="#DejaVuSans-Bold-3" transform="translate(2070.125 0)"/>
     <use xlink:href="#DejaVuSans-Bold-24" transform="translate(2104.9375 0)"/>
     <use xlink:href="#DejaVuSans-Bold-f" transform="translate(2184.1875 0)"/>
     <use xlink:href="#DejaVuSans-Bold-3" transform="translate(2222.171875 0)"/>
     <use xlink:href="#DejaVuSans-Bold-25" transform="translate(2256.984375 0)"/>
     <use xlink:href="#DejaVuSans-Bold-3" transform="translate(2333.203125 0)"/>
     <use xlink:href="#DejaVuSans-Bold-52" transform="translate(2368.015625 0)"/>
     <use xlink:href="#DejaVuSans-Bold-4a" transform="translate(2436.71875 0)"/>
     <use xlink:href="#DejaVuSans-Bold-3" transform="translate(2508.296875 0)"/>
     <use xlink:href="#DejaVuSans-Bold-24" transform="translate(2543.109375 0)"/>
     <use xlink:href="#DejaVuSans-Bold-3" transform="translate(2620.5 0)"/>
     <use xlink:href="#DejaVuSans-Bold-56" transform="translate(2655.3125 0)"/>
     <use xlink:href="#DejaVuSans-Bold-51" transform="translate(2714.828125 0)"/>
     <use xlink:href="#DejaVuSans-Bold-4c" transform="translate(2786.015625 0)"/>
     <use xlink:href="#DejaVuSans-Bold-57" transform="translate(2820.296875 0)"/>
     <use xlink:href="#DejaVuSans-Bold-3" transform="translate(2868.09375 0)"/>
     <use xlink:href="#DejaVuSans-Bold-25" transform="translate(2902.90625 0)"/>
    </g>
   </g>
   <g id="PathCollection_1">
    <defs>
     <path id="mad4b6725db" d="M 0 4.1833 
C 1.109424 4.1833 2.173559 3.742521 2.95804 2.95804 
C 3.742521 2.173559 4.1833 1.109424 4.1833 0 
C 4.1833 -1.109424 3.742521 -2.173559 2.95804 -2.95804 
C 2.173559 -3.742521 1.109424 -4.1833 0 -4.1833 
C -1.109424 -4.1833 -2.173559 -3.742521 -2.95804 -2.95804 
C -3.742521 -2.173559 -4.1833 -1.109424 -4.1833 0 
C -4.1833 1.109424 -3.742521 2.173559 -2.95804 2.95804 
C -2.173559 3.742521 -1.109424 4.1833 0 4.1833 
z
" style="stroke: #1f77b4"/>
    </defs>
    <g clip-path="url(#pf8d742e1d4)">
     <use xlink:href="#mad4b6725db" x="270.81" y="247.777187" style="fill: #1f77b4; stroke: #1f77b4"/>
    </g>
   </g>
   <g id="PathCollection_2">
    <defs>
     <path id="m0c7cbf9989" d="M 0 4.743416 
C 1.257969 4.743416 2.464584 4.24362 3.354102 3.354102 
C 4.24362 2.464584 4.743416 1.257969 4.743416 0 
C 4.743416 -1.257969 4.24362 -2.464584 3.354102 -3.354102 
C 2.464584 -4.24362 1.257969 -4.743416 0 -4.743416 
C -1.257969 -4.743416 -2.464584 -4.24362 -3.354102 -3.354102 
C -4.24362 -2.464584 -4.743416 -1.257969 -4.743416 0 
C -4.743416 1.257969 -4.24362 2.464584 -3.354102 3.354102 
C -2.464584 4.24362 -1.257969 4.743416 0 4.743416 
z
" style="stroke: #d62728"/>
    </defs>
    <g clip-path="url(#pf8d742e1d4)">
     <use xlink:href="#m0c7cbf9989" x="336.853896" y="133.385803" style="fill: #d62728; stroke: #d62728"/>
     <use xlink:href="#m0c7cbf9989" x="336.853896" y="362.168572" style="fill: #d62728; stroke: #d62728"/>
    </g>
   </g>
   <g id="legend_1">
    <g id="patch_7">
     <path d="M 66.469531 74.482031 
L 324.138281 74.482031 
Q 326.138281 74.482031 326.138281 72.482031 
L 326.138281 43.436719 
Q 326.138281 41.436719 324.138281 41.436719 
L 66.469531 41.436719 
Q 64.469531 41.436719 64.469531 43.436719 
L 64.469531 72.482031 
Q 64.469531 74.482031 66.469531 74.482031 
z
" style="fill: #ffffff; opacity: 0.95; stroke: #cccccc; stroke-linejoin: miter"/>
    </g>
    <g id="line2d_33">
     <path d="M 68.469531 49.578906 
L 78.469531 49.578906 
L 88.469531 49.578906 
" style="fill: none; stroke: #1f77b4; stroke-width: 2.5; stroke-linecap: square"/>
    </g>
    <g id="text_21">
     <!-- Maengde A: |z - i| = 2 (cirkel, r=2, centrum i) -->
     <g transform="translate(96.469531 53.078906) scale(0.1 -0.1)">
      <defs>
       <path id="DejaVuSans-30" d="M 628 4666 
L 1569 4666 
L 2759 1491 
L 3956 4666 
L 4897 4666 
L 4897 0 
L 4281 0 
L 4281 4097 
L 3078 897 
L 2444 897 
L 1241 4097 
L 1241 0 
L 628 0 
L 628 4666 
z
" transform="scale(0.015625)"/>
       <path id="DejaVuSans-44" d="M 2194 1759 
Q 1497 1759 1228 1600 
Q 959 1441 959 1056 
Q 959 750 1161 570 
Q 1363 391 1709 391 
Q 2188 391 2477 730 
Q 2766 1069 2766 1631 
L 2766 1759 
L 2194 1759 
z
M 3341 1997 
L 3341 0 
L 2766 0 
L 2766 531 
Q 2569 213 2275 61 
Q 1981 -91 1556 -91 
Q 1019 -91 701 211 
Q 384 513 384 1019 
Q 384 1609 779 1909 
Q 1175 2209 1959 2209 
L 2766 2209 
L 2766 2266 
Q 2766 2663 2505 2880 
Q 2244 3097 1772 3097 
Q 1472 3097 1187 3025 
Q 903 2953 641 2809 
L 641 3341 
Q 956 3463 1253 3523 
Q 1550 3584 1831 3584 
Q 2591 3584 2966 3190 
Q 3341 2797 3341 1997 
z
" transform="scale(0.015625)"/>
       <path id="DejaVuSans-48" d="M 3597 1894 
L 3597 1613 
L 953 1613 
Q 991 1019 1311 708 
Q 1631 397 2203 397 
Q 2534 397 2845 478 
Q 3156 559 3463 722 
L 3463 178 
Q 3153 47 2828 -22 
Q 2503 -91 2169 -91 
Q 1331 -91 842 396 
Q 353 884 353 1716 
Q 353 2575 817 3079 
Q 1281 3584 2069 3584 
Q 2775 3584 3186 3129 
Q 3597 2675 3597 1894 
z
M 3022 2063 
Q 3016 2534 2758 2815 
Q 2500 3097 2075 3097 
Q 1594 3097 1305 2825 
Q 1016 2553 972 2059 
L 3022 2063 
z
" transform="scale(0.015625)"/>
       <path id="DejaVuSans-51" d="M 3513 2113 
L 3513 0 
L 2938 0 
L 2938 2094 
Q 2938 2591 2744 2837 
Q 2550 3084 2163 3084 
Q 1697 3084 1428 2787 
Q 1159 2491 1159 1978 
L 1159 0 
L 581 0 
L 581 3500 
L 1159 3500 
L 1159 2956 
Q 1366 3272 1645 3428 
Q 1925 3584 2291 3584 
Q 2894 3584 3203 3211 
Q 3513 2838 3513 2113 
z
" transform="scale(0.015625)"/>
       <path id="DejaVuSans-4a" d="M 2906 1791 
Q 2906 2416 2648 2759 
Q 2391 3103 1925 3103 
Q 1463 3103 1205 2759 
Q 947 2416 947 1791 
Q 947 1169 1205 825 
Q 1463 481 1925 481 
Q 2391 481 2648 825 
Q 2906 1169 2906 1791 
z
M 3481 434 
Q 3481 -459 3084 -895 
Q 2688 -1331 1869 -1331 
Q 1566 -1331 1297 -1286 
Q 1028 -1241 775 -1147 
L 775 -588 
Q 1028 -725 1275 -790 
Q 1522 -856 1778 -856 
Q 2344 -856 2625 -561 
Q 2906 -266 2906 331 
L 2906 616 
Q 2728 306 2450 153 
Q 2172 0 1784 0 
Q 1141 0 747 490 
Q 353 981 353 1791 
Q 353 2603 747 3093 
Q 1141 3584 1784 3584 
Q 2172 3584 2450 3431 
Q 2728 3278 2906 2969 
L 2906 3500 
L 3481 3500 
L 3481 434 
z
" transform="scale(0.015625)"/>
       <path id="DejaVuSans-47" d="M 2906 2969 
L 2906 4863 
L 3481 4863 
L 3481 0 
L 2906 0 
L 2906 525 
Q 2725 213 2448 61 
Q 2172 -91 1784 -91 
Q 1150 -91 751 415 
Q 353 922 353 1747 
Q 353 2572 751 3078 
Q 1150 3584 1784 3584 
Q 2172 3584 2448 3432 
Q 2725 3281 2906 2969 
z
M 947 1747 
Q 947 1113 1208 752 
Q 1469 391 1925 391 
Q 2381 391 2643 752 
Q 2906 1113 2906 1747 
Q 2906 2381 2643 2742 
Q 2381 3103 1925 3103 
Q 1469 3103 1208 2742 
Q 947 2381 947 1747 
z
" transform="scale(0.015625)"/>
       <path id="DejaVuSans-3" transform="scale(0.015625)"/>
       <path id="DejaVuSans-24" d="M 2188 4044 
L 1331 1722 
L 3047 1722 
L 2188 4044 
z
M 1831 4666 
L 2547 4666 
L 4325 0 
L 3669 0 
L 3244 1197 
L 1141 1197 
L 716 0 
L 50 0 
L 1831 4666 
z
" transform="scale(0.015625)"/>
       <path id="DejaVuSans-1d" d="M 750 794 
L 1409 794 
L 1409 0 
L 750 0 
L 750 794 
z
M 750 3309 
L 1409 3309 
L 1409 2516 
L 750 2516 
L 750 3309 
z
" transform="scale(0.015625)"/>
       <path id="DejaVuSans-5f" d="M 1344 4891 
L 1344 -1509 
L 813 -1509 
L 813 4891 
L 1344 4891 
z
" transform="scale(0.015625)"/>
       <path id="DejaVuSans-5d" d="M 353 3500 
L 3084 3500 
L 3084 2975 
L 922 459 
L 3084 459 
L 3084 0 
L 275 0 
L 275 525 
L 2438 3041 
L 353 3041 
L 353 3500 
z
" transform="scale(0.015625)"/>
       <path id="DejaVuSans-10" d="M 313 2009 
L 1997 2009 
L 1997 1497 
L 313 1497 
L 313 2009 
z
" transform="scale(0.015625)"/>
       <path id="DejaVuSans-4c" d="M 603 3500 
L 1178 3500 
L 1178 0 
L 603 0 
L 603 3500 
z
M 603 4863 
L 1178 4863 
L 1178 4134 
L 603 4134 
L 603 4863 
z
" transform="scale(0.015625)"/>
       <path id="DejaVuSans-46" d="M 3122 3366 
L 3122 2828 
Q 2878 2963 2633 3030 
Q 2388 3097 2138 3097 
Q 1578 3097 1268 2742 
Q 959 2388 959 1747 
Q 959 1106 1268 751 
Q 1578 397 2138 397 
Q 2388 397 2633 464 
Q 2878 531 3122 666 
L 3122 134 
Q 2881 22 2623 -34 
Q 2366 -91 2075 -91 
Q 1284 -91 818 406 
Q 353 903 353 1747 
Q 353 2603 823 3093 
Q 1294 3584 2113 3584 
Q 2378 3584 2631 3529 
Q 2884 3475 3122 3366 
z
" transform="scale(0.015625)"/>
       <path id="DejaVuSans-55" d="M 2631 2963 
Q 2534 3019 2420 3045 
Q 2306 3072 2169 3072 
Q 1681 3072 1420 2755 
Q 1159 2438 1159 1844 
L 1159 0 
L 581 0 
L 581 3500 
L 1159 3500 
L 1159 2956 
Q 1341 3275 1631 3429 
Q 1922 3584 2338 3584 
Q 2397 3584 2469 3576 
Q 2541 3569 2628 3553 
L 2631 2963 
z
" transform="scale(0.015625)"/>
       <path id="DejaVuSans-4e" d="M 581 4863 
L 1159 4863 
L 1159 1991 
L 2875 3500 
L 3609 3500 
L 1753 1863 
L 3688 0 
L 2938 0 
L 1159 1709 
L 1159 0 
L 581 0 
L 581 4863 
z
" transform="scale(0.015625)"/>
       <path id="DejaVuSans-4f" d="M 603 4863 
L 1178 4863 
L 1178 0 
L 603 0 
L 603 4863 
z
" transform="scale(0.015625)"/>
       <path id="DejaVuSans-f" d="M 750 794 
L 1409 794 
L 1409 256 
L 897 -744 
L 494 -744 
L 750 256 
L 750 794 
z
" transform="scale(0.015625)"/>
       <path id="DejaVuSans-57" d="M 1172 4494 
L 1172 3500 
L 2356 3500 
L 2356 3053 
L 1172 3053 
L 1172 1153 
Q 1172 725 1289 603 
Q 1406 481 1766 481 
L 2356 481 
L 2356 0 
L 1766 0 
Q 1100 0 847 248 
Q 594 497 594 1153 
L 594 3053 
L 172 3053 
L 172 3500 
L 594 3500 
L 594 4494 
L 1172 4494 
z
" transform="scale(0.015625)"/>
       <path id="DejaVuSans-58" d="M 544 1381 
L 544 3500 
L 1119 3500 
L 1119 1403 
Q 1119 906 1312 657 
Q 1506 409 1894 409 
Q 2359 409 2629 706 
Q 2900 1003 2900 1516 
L 2900 3500 
L 3475 3500 
L 3475 0 
L 2900 0 
L 2900 538 
Q 2691 219 2414 64 
Q 2138 -91 1772 -91 
Q 1169 -91 856 284 
Q 544 659 544 1381 
z
M 1991 3584 
L 1991 3584 
z
" transform="scale(0.015625)"/>
       <path id="DejaVuSans-50" d="M 3328 2828 
Q 3544 3216 3844 3400 
Q 4144 3584 4550 3584 
Q 5097 3584 5394 3201 
Q 5691 2819 5691 2113 
L 5691 0 
L 5113 0 
L 5113 2094 
Q 5113 2597 4934 2840 
Q 4756 3084 4391 3084 
Q 3944 3084 3684 2787 
Q 3425 2491 3425 1978 
L 3425 0 
L 2847 0 
L 2847 2094 
Q 2847 2600 2669 2842 
Q 2491 3084 2119 3084 
Q 1678 3084 1418 2786 
Q 1159 2488 1159 1978 
L 1159 0 
L 581 0 
L 581 3500 
L 1159 3500 
L 1159 2956 
Q 1356 3278 1631 3431 
Q 1906 3584 2284 3584 
Q 2666 3584 2933 3390 
Q 3200 3197 3328 2828 
z
" transform="scale(0.015625)"/>
      </defs>
      <use xlink:href="#DejaVuSans-30"/>
      <use xlink:href="#DejaVuSans-44" transform="translate(86.28125 0)"/>
      <use xlink:href="#DejaVuSans-48" transform="translate(147.5625 0)"/>
      <use xlink:href="#DejaVuSans-51" transform="translate(209.09375 0)"/>
      <use xlink:href="#DejaVuSans-4a" transform="translate(272.46875 0)"/>
      <use xlink:href="#DejaVuSans-47" transform="translate(335.953125 0)"/>
      <use xlink:href="#DejaVuSans-48" transform="translate(399.4375 0)"/>
      <use xlink:href="#DejaVuSans-3" transform="translate(460.96875 0)"/>
      <use xlink:href="#DejaVuSans-24" transform="translate(492.75 0)"/>
      <use xlink:href="#DejaVuSans-1d" transform="translate(559.40625 0)"/>
      <use xlink:href="#DejaVuSans-3" transform="translate(593.09375 0)"/>
      <use xlink:href="#DejaVuSans-5f" transform="translate(624.875 0)"/>
      <use xlink:href="#DejaVuSans-5d" transform="translate(658.5625 0)"/>
      <use xlink:href="#DejaVuSans-3" transform="translate(711.046875 0)"/>
      <use xlink:href="#DejaVuSans-10" transform="translate(742.828125 0)"/>
      <use xlink:href="#DejaVuSans-3" transform="translate(778.90625 0)"/>
      <use xlink:href="#DejaVuSans-4c" transform="translate(810.6875 0)"/>
      <use xlink:href="#DejaVuSans-5f" transform="translate(838.46875 0)"/>
      <use xlink:href="#DejaVuSans-3" transform="translate(872.15625 0)"/>
      <use xlink:href="#DejaVuSans-20" transform="translate(903.9375 0)"/>
      <use xlink:href="#DejaVuSans-3" transform="translate(987.734375 0)"/>
      <use xlink:href="#DejaVuSans-15" transform="translate(1019.515625 0)"/>
      <use xlink:href="#DejaVuSans-3" transform="translate(1083.140625 0)"/>
      <use xlink:href="#DejaVuSans-b" transform="translate(1114.921875 0)"/>
      <use xlink:href="#DejaVuSans-46" transform="translate(1153.9375 0)"/>
      <use xlink:href="#DejaVuSans-4c" transform="translate(1208.921875 0)"/>
      <use xlink:href="#DejaVuSans-55" transform="translate(1236.703125 0)"/>
      <use xlink:href="#DejaVuSans-4e" transform="translate(1277.8125 0)"/>
      <use xlink:href="#DejaVuSans-48" transform="translate(1332.15625 0)"/>
      <use xlink:href="#DejaVuSans-4f" transform="translate(1393.6875 0)"/>
      <use xlink:href="#DejaVuSans-f" transform="translate(1421.46875 0)"/>
      <use xlink:href="#DejaVuSans-3" transform="translate(1453.25 0)"/>
      <use xlink:href="#DejaVuSans-55" transform="translate(1485.03125 0)"/>
      <use xlink:href="#DejaVuSans-20" transform="translate(1526.140625 0)"/>
      <use xlink:href="#DejaVuSans-15" transform="translate(1609.9375 0)"/>
      <use xlink:href="#DejaVuSans-f" transform="translate(1673.5625 0)"/>
      <use xlink:href="#DejaVuSans-3" transform="translate(1705.34375 0)"/>
      <use xlink:href="#DejaVuSans-46" transform="translate(1737.125 0)"/>
      <use xlink:href="#DejaVuSans-48" transform="translate(1792.109375 0)"/>
      <use xlink:href="#DejaVuSans-51" transform="translate(1853.640625 0)"/>
      <use xlink:href="#DejaVuSans-57" transform="translate(1917.015625 0)"/>
      <use xlink:href="#DejaVuSans-55" transform="translate(1956.21875 0)"/>
      <use xlink:href="#DejaVuSans-58" transform="translate(1997.328125 0)"/>
      <use xlink:href="#DejaVuSans-50" transform="translate(2060.703125 0)"/>
      <use xlink:href="#DejaVuSans-3" transform="translate(2158.109375 0)"/>
      <use xlink:href="#DejaVuSans-4c" transform="translate(2189.890625 0)"/>
      <use xlink:href="#DejaVuSans-c" transform="translate(2217.671875 0)"/>
     </g>
    </g>
    <g id="line2d_34">
     <path d="M 68.469531 64.579688 
L 78.469531 64.579688 
L 88.469531 64.579688 
" style="fill: none; stroke: #ff7f0e; stroke-width: 2.5; stroke-linecap: square"/>
    </g>
    <g id="text_22">
     <!-- Maengde B: Re(z) = 1 (lodret linje) -->
     <g transform="translate(96.469531 68.079688) scale(0.1 -0.1)">
      <defs>
       <path id="DejaVuSans-25" d="M 1259 2228 
L 1259 519 
L 2272 519 
Q 2781 519 3026 730 
Q 3272 941 3272 1375 
Q 3272 1813 3026 2020 
Q 2781 2228 2272 2228 
L 1259 2228 
z
M 1259 4147 
L 1259 2741 
L 2194 2741 
Q 2656 2741 2882 2914 
Q 3109 3088 3109 3444 
Q 3109 3797 2882 3972 
Q 2656 4147 2194 4147 
L 1259 4147 
z
M 628 4666 
L 2241 4666 
Q 2963 4666 3353 4366 
Q 3744 4066 3744 3513 
Q 3744 3084 3544 2831 
Q 3344 2578 2956 2516 
Q 3422 2416 3680 2098 
Q 3938 1781 3938 1306 
Q 3938 681 3513 340 
Q 3088 0 2303 0 
L 628 0 
L 628 4666 
z
" transform="scale(0.015625)"/>
       <path id="DejaVuSans-35" d="M 2841 2188 
Q 3044 2119 3236 1894 
Q 3428 1669 3622 1275 
L 4263 0 
L 3584 0 
L 2988 1197 
Q 2756 1666 2539 1819 
Q 2322 1972 1947 1972 
L 1259 1972 
L 1259 0 
L 628 0 
L 628 4666 
L 2053 4666 
Q 2853 4666 3247 4331 
Q 3641 3997 3641 3322 
Q 3641 2881 3436 2590 
Q 3231 2300 2841 2188 
z
M 1259 4147 
L 1259 2491 
L 2053 2491 
Q 2509 2491 2742 2702 
Q 2975 2913 2975 3322 
Q 2975 3731 2742 3939 
Q 2509 4147 2053 4147 
L 1259 4147 
z
" transform="scale(0.015625)"/>
       <path id="DejaVuSans-52" d="M 1959 3097 
Q 1497 3097 1228 2736 
Q 959 2375 959 1747 
Q 959 1119 1226 758 
Q 1494 397 1959 397 
Q 2419 397 2687 759 
Q 2956 1122 2956 1747 
Q 2956 2369 2687 2733 
Q 2419 3097 1959 3097 
z
M 1959 3584 
Q 2709 3584 3137 3096 
Q 3566 2609 3566 1747 
Q 3566 888 3137 398 
Q 2709 -91 1959 -91 
Q 1206 -91 779 398 
Q 353 888 353 1747 
Q 353 2609 779 3096 
Q 1206 3584 1959 3584 
z
" transform="scale(0.015625)"/>
       <path id="DejaVuSans-4d" d="M 603 3500 
L 1178 3500 
L 1178 -63 
Q 1178 -731 923 -1031 
Q 669 -1331 103 -1331 
L -116 -1331 
L -116 -844 
L 38 -844 
Q 366 -844 484 -692 
Q 603 -541 603 -63 
L 603 3500 
z
M 603 4863 
L 1178 4863 
L 1178 4134 
L 603 4134 
L 603 4863 
z
" transform="scale(0.015625)"/>
      </defs>
      <use xlink:href="#DejaVuSans-30"/>
      <use xlink:href="#DejaVuSans-44" transform="translate(86.28125 0)"/>
      <use xlink:href="#DejaVuSans-48" transform="translate(147.5625 0)"/>
      <use xlink:href="#DejaVuSans-51" transform="translate(209.09375 0)"/>
      <use xlink:href="#DejaVuSans-4a" transform="translate(272.46875 0)"/>
      <use xlink:href="#DejaVuSans-47" transform="translate(335.953125 0)"/>
      <use xlink:href="#DejaVuSans-48" transform="translate(399.4375 0)"/>
      <use xlink:href="#DejaVuSans-3" transform="translate(460.96875 0)"/>
      <use xlink:href="#DejaVuSans-25" transform="translate(492.75 0)"/>
      <use xlink:href="#DejaVuSans-1d" transform="translate(561.359375 0)"/>
      <use xlink:href="#DejaVuSans-3" transform="translate(595.046875 0)"/>
      <use xlink:href="#DejaVuSans-35" transform="translate(626.828125 0)"/>
      <use xlink:href="#DejaVuSans-48" transform="translate(691.828125 0)"/>
      <use xlink:href="#DejaVuSans-b" transform="translate(753.359375 0)"/>
      <use xlink:href="#DejaVuSans-5d" transform="translate(792.375 0)"/>
      <use xlink:href="#DejaVuSans-c" transform="translate(844.859375 0)"/>
      <use xlink:href="#DejaVuSans-3" transform="translate(883.875 0)"/>
      <use xlink:href="#DejaVuSans-20" transform="translate(915.65625 0)"/>
      <use xlink:href="#DejaVuSans-3" transform="translate(999.453125 0)"/>
      <use xlink:href="#DejaVuSans-14" transform="translate(1031.234375 0)"/>
      <use xlink:href="#DejaVuSans-3" transform="translate(1094.859375 0)"/>
      <use xlink:href="#DejaVuSans-b" transform="translate(1126.640625 0)"/>
      <use xlink:href="#DejaVuSans-4f" transform="translate(1165.65625 0)"/>
      <use xlink:href="#DejaVuSans-52" transform="translate(1193.4375 0)"/>
      <use xlink:href="#DejaVuSans-47" transform="translate(1254.625 0)"/>
      <use xlink:href="#DejaVuSans-55" transform="translate(1318.109375 0)"/>
      <use xlink:href="#DejaVuSans-48" transform="translate(1357.015625 0)"/>
      <use xlink:href="#DejaVuSans-57" transform="translate(1418.546875 0)"/>
      <use xlink:href="#DejaVuSans-3" transform="translate(1457.75 0)"/>
      <use xlink:href="#DejaVuSans-4f" transform="translate(1489.53125 0)"/>
      <use xlink:href="#DejaVuSans-4c" transform="translate(1517.3125 0)"/>
      <use xlink:href="#DejaVuSans-51" transform="translate(1545.09375 0)"/>
      <use xlink:href="#DejaVuSans-4d" transform="translate(1608.46875 0)"/>
      <use xlink:href="#DejaVuSans-48" transform="translate(1636.25 0)"/>
      <use xlink:href="#DejaVuSans-c" transform="translate(1697.78125 0)"/>
     </g>
    </g>
   </g>
  </g>
 </g>
 <defs>
  <clipPath id="pf8d742e1d4">
   <rect x="59.469531" y="36.436719" width="422.680937" height="422.680937"/>
  </clipPath>
 </defs>
</svg>
